<?xml version="1.0" encoding="UTF-8" standalone="no"?>
<!-- Created with Inkscape (http://www.inkscape.org/) -->

<svg
   width="512"
   height="512"
   viewBox="0 0 512 512"
   version="1.1"
   id="svg5"
   xml:space="preserve"
   xmlns="http://www.w3.org/2000/svg"
   xmlns:svg="http://www.w3.org/2000/svg"><defs
     id="defs2" /><g
     id="logo"
     style="display:inline;fill:#0077ff;fill-opacity:1;stroke:#e6e6e6;stroke-opacity:1"><path
       id="squircle"
       style="fill:#409bff;fill-opacity:1;stroke:#a4abbd;stroke-width:2;stroke-dasharray:none;stroke-opacity:1;image-rendering:auto"
       d="m 94.806641,24.556641 c -38.91788,0 -70.25,31.33212 -70.25,70.25 v 33.937499 h 35.5625 v -9.16992 c 0,-32.937914 26.517165,-59.455079 59.455079,-59.455079 h 272.85156 c 32.93792,0 59.45508,26.517165 59.45508,59.455079 v 25.63867 c 7.61826,4.22966 14.58753,9.37871 20.86914,15.50195 5.70348,5.4862 10.58218,9.44541 14.69336,15.84571 V 94.806641 c 0,-38.91788 -31.33212,-70.25 -70.25,-70.25 z M 487.44336,329.01758 c -4.11118,6.40029 -8.98988,10.36145 -14.69336,15.84765 -6.29125,6.08155 -13.25938,11.21786 -20.86914,15.45899 v 32.10156 c 0,32.93792 -26.51716,59.45508 -59.45508,59.45508 H 119.57422 c -32.937914,0 -59.455079,-26.51716 -59.455079,-59.45508 v -15.5918 h -35.5625 v 40.35938 c 0,38.91788 31.33212,70.25 70.25,70.25 H 417.19336 c 38.91788,0 70.25,-31.33212 70.25,-70.25 z" /><path
       id="letters"
       style="font-weight:bold;font-size:307.392px;font-family:'DejaVu Sans';-inkscape-font-specification:'DejaVu Sans Bold';letter-spacing:-27.6881px;fill:#409bff;fill-opacity:1;stroke:#a4abbd;stroke-width:2;stroke-dasharray:none;stroke-opacity:1"
       d="M 14.734375,140.74414 V 364.83398 H 69.519531 V 200.93164 l 51.632809,120.82617 h 36.62305 l 51.63086,-120.82617 v 163.90234 h 54.63477 V 140.74414 H 190.64453 L 139.3125,260.66992 88.28125,140.74414 Z m 278.203125,0 v 224.08984 h 60.93945 c 33.62097,0 58.836,-2.40208 75.64649,-7.20507 16.81048,-4.90306 31.21907,-13.15643 43.22656,-24.76368 10.50656,-10.1063 18.31088,-21.76442 23.41406,-34.97265 5.10318,-13.3083 7.65625,-28.41758 7.65625,-45.32813 0,-16.71042 -2.55307,-31.67067 -7.65625,-44.8789 -5.10318,-13.20824 -12.9075,-24.8644 -23.41406,-34.97071 -11.90742,-11.60723 -26.21536,-19.81224 -42.92578,-24.61523 -16.61036,-4.90306 -41.92605,-7.35547 -75.94727,-7.35547 z m 57.78711,43.67774 h 20.71289 c 23.71479,-10e-6 41.77585,5.80291 54.18359,17.41015 12.40774,11.60724 18.61133,28.51857 18.61133,50.73242 0,22.31391 -6.25392,39.32395 -18.76172,51.03125 -12.40773,11.7073 -30.41847,17.56055 -54.0332,17.56055 h -20.71289 z" /></g></svg>
